<?xml version="1.0" encoding="UTF-8" standalone="no"?>
<!-- Created with Inkscape (http://www.inkscape.org/) -->

<svg
   width="32"
   height="32"
   viewBox="0 0 8.4666664 8.4666664"
   version="1.1"
   id="svg1"
   xml:space="preserve"
   sodipodi:docname="installer-logo.svg"
   inkscape:export-filename="Dokumenty/installer/src/usr/bin/yavix-installer/images/installer-logo"
   inkscape:export-xdpi="1344.0001"
   inkscape:export-ydpi="1344.0001"
   inkscape:version="1.4.3 (0d15f75042, 2025-12-25)"
   xmlns:inkscape="http://www.inkscape.org/namespaces/inkscape"
   xmlns:sodipodi="http://sodipodi.sourceforge.net/DTD/sodipodi-0.dtd"
   xmlns="http://www.w3.org/2000/svg"
   xmlns:svg="http://www.w3.org/2000/svg"><sodipodi:namedview
     id="namedview1"
     pagecolor="#ffffff"
     bordercolor="#999999"
     borderopacity="1"
     inkscape:showpageshadow="2"
     inkscape:pageopacity="0"
     inkscape:pagecheckerboard="0"
     inkscape:deskcolor="#d1d1d1"
     inkscape:document-units="px"
     inkscape:zoom="12.578126"
     inkscape:cx="2.1863352"
     inkscape:cy="16.894409"
     inkscape:window-width="1920"
     inkscape:window-height="1012"
     inkscape:window-x="0"
     inkscape:window-y="0"
     inkscape:window-maximized="1"
     inkscape:current-layer="layer1"><inkscape:page
       x="0"
       y="0"
       width="8.4666662"
       height="8.4666662"
       id="page2"
       margin="0"
       bleed="0" /></sodipodi:namedview><defs
     id="defs1"><rect
       x="4.0525751"
       y="4.6626401"
       width="25.099819"
       height="12.375605"
       id="rect6" /><rect
       x="6"
       y="6.0625"
       width="19.9375"
       height="19.9375"
       id="rect3-5" /><rect
       x="6"
       y="6.0625"
       width="19.9375"
       height="19.9375"
       id="rect3-9" /></defs><rect
     style="fill:#333333;stroke-width:0.263805"
     id="rect7"
     width="5.9266667"
     height="5.9266672"
     x="1.2699999"
     y="7.1054274e-15"
     ry="0.45219699" /><g
     inkscape:label="Warstwa 1"
     inkscape:groupmode="layer"
     id="layer1"><rect
       style="fill:#333333;stroke-width:0.281464"
       id="rect1"
       width="8.4666662"
       height="2.2577777"
       x="7.1054274e-15"
       y="6.2088885"
       ry="0.39100081" /><rect
       style="fill:#ffffff;stroke-width:0.23549"
       id="rect2"
       width="7.9022217"
       height="1.6933333"
       x="0.28222218"
       y="6.4911108"
       ry="0.29325062" /><g
       id="g3"
       transform="matrix(1.0666666,0,0,1.0666667,-0.42343469,1.2782513e-8)"
       style="fill:#ffffff"><rect
         style="fill:#ffffff;stroke-width:0.264544"
         id="rect3"
         width="2.3812499"
         height="3.7041667"
         x="3.175"
         y="0.26458332"
         ry="0.40353259" /><path
         sodipodi:type="star"
         style="fill:#ffffff;stroke-width:0.264999"
         id="path3"
         inkscape:flatsided="true"
         sodipodi:sides="3"
         sodipodi:cx="3.1821427"
         sodipodi:cy="3.9546194"
         sodipodi:r1="2.3289881"
         sodipodi:r2="0"
         sodipodi:arg1="-0.0049504546"
         sodipodi:arg2="1.0422471"
         inkscape:rounded="0.05"
         inkscape:randomized="0"
         d="M 5.5111023,3.9430899 C 5.5121008,4.1447837 2.202819,6.0773045 2.0276478,5.9773223 1.8524766,5.8773401 1.8335054,2.0451577 2.0076781,1.943446 2.1818508,1.8417344 5.5101038,3.7413961 5.5111023,3.9430899 Z"
         inkscape:transform-center-x="0.0056609371"
         inkscape:transform-center-y="0.2949393"
         transform="matrix(0,0.51094073,-0.98198401,0,8.2546591,2.47582)" /></g><g
       inkscape:label="Warstwa 1"
       id="layer1-5"
       transform="matrix(0.16666666,0,0,0.16666667,0.42333329,6.6322222)"><rect
         style="fill:#241c1c;stroke-width:0.423998"
         id="rect2-6"
         x="1.2e-08"
         y="4.5765618e-09"
         width="8.4666662"
         height="8.4666662" /><rect
         style="fill:#1a1a1a;stroke-width:0.27369"
         id="rect4-2"
         width="4.2333331"
         height="8.4666662"
         x="-1.7347235e-18"
         y="0" /><rect
         style="fill:#4d4d4d;stroke-width:0.27369"
         id="rect4"
         width="4.2333331"
         height="8.4666662"
         x="4.2333331"
         y="-1.7347235e-18" /><path
         sodipodi:type="star"
         style="fill:#333333;stroke-width:0.264999"
         id="path5"
         inkscape:flatsided="true"
         sodipodi:sides="3"
         sodipodi:cx="0.54957294"
         sodipodi:cy="-0.011693042"
         sodipodi:r1="4.2913623"
         sodipodi:r2="2.1456811"
         sodipodi:arg1="1.5735211"
         sodipodi:arg2="2.6207187"
         inkscape:rounded="0"
         inkscape:randomized="0"
         d="m 0.53787997,4.2796533 -3.69887547,-6.4471459 7.4328299,0.020253 z"
         inkscape:transform-center-x="-0.0066598081"
         inkscape:transform-center-y="0.87640332"
         transform="matrix(1.1390906,0,0,0.8207766,3.6006603,1.7790272)" /><path
         id="text2-0"
         style="writing-mode:lr-tb;direction:ltr;white-space:pre;shape-inside:url(#rect3-9);display:inline;fill:#000000;stroke-width:1.00157"
         d="m 6,8.4129939 2.8558403,5.2922511 v 3.275757 H 9.9361596 V 13.657134 L 12.57975,8.8025915 V 8.4129939 H 11.627941 L 9.396,12.624831 7.1760806,8.4129939 Z"
         transform="matrix(1.2465646,0,0,0.98817207,-7.2148043,-8.3134856)" /><path
         id="text2"
         style="writing-mode:lr-tb;direction:ltr;white-space:pre;shape-inside:url(#rect3-5);fill:#ffffff;stroke-width:1.00157"
         d="m 6.0000001,8.4129939 2.8558403,5.2922511 v 3.275757 H 9.9361597 V 13.657134 L 12.792,8.4129939 H 11.627941 L 9.396,12.624831 7.1760806,8.4129939 Z M 8.865375,16.445502 h 1.06125 v 0.468563 h -1.06125 z"
         transform="matrix(1.2465646,0,0,0.98817207,-7.4793877,-8.3134856)" /><rect
         style="fill:#ffffff;stroke-width:0.270611"
         id="rect5"
         width="1.3300835"
         height="0.50572407"
         x="3.5718749"
         y="7.9199605" /></g><path
       id="text3"
       style="font-style:normal;font-variant:normal;font-weight:normal;font-stretch:normal;font-size:5.33333px;font-family:'Adwaita Sans';-inkscape-font-specification:'Adwaita Sans';writing-mode:lr-tb;direction:ltr;white-space:pre;shape-inside:url(#rect6);fill:#333333;stroke-width:0.39297"
       d="m 1.9705945,6.6322222 0.6079904,0.8246181 v 0.5776736 h 0.19954 V 7.4568403 L 3.3861152,6.6322222 H 3.1562585 l -0.330178,0.4536502 c -0.032533,0.045182 -0.064669,0.090416 -0.096463,0.1355986 -0.01669,0.024283 -0.033684,0.048479 -0.050161,0.072761 L 2.6298475,7.221471 C 2.5987925,7.1762889 2.5661065,7.1310546 2.5328335,7.0858724 L 2.2015537,6.6322222 Z m 1.8256248,0 -0.609644,1.4022917 H 3.3949346 L 3.5608504,7.6414975 H 4.2515231 L 4.4130292,8.0345139 H 4.6257983 L 4.0227688,6.6322222 Z m 0.6520877,0 0.6101953,1.4022917 h 0.225998 L 5.8880811,6.6322222 H 5.6797219 L 5.331354,7.4772353 C 5.31287,7.5230453 5.288357,7.584706 5.258042,7.6618925 5.234264,7.7219375 5.20622,7.794321 5.174257,7.879071 5.141385,7.794321 5.113146,7.7219375 5.08937,7.6618925 5.059794,7.584706 5.035834,7.5230453 5.01661,7.4772353 L 4.6594225,6.6322222 Z m 1.626085,0 V 8.0345139 H 6.2739319 V 6.6322222 Z m 0.4271916,0 0.5561765,0.6846095 -0.5920055,0.7176822 H 6.6923041 L 6.9883069,7.6734682 c 0.023663,-0.028867 0.047083,-0.057751 0.070004,-0.08599 l 0.068902,-0.084336 c 0.015302,-0.019271 0.030225,-0.038886 0.0452,-0.057878 0.014809,0.018991 0.029838,0.038607 0.044649,0.057878 0.022181,0.028239 0.044327,0.056097 0.067248,0.084336 0.022921,0.028239 0.045981,0.057123 0.068902,0.08599 L 7.6470097,8.0345139 H 7.8768662 L 7.2903727,7.3107682 7.8465491,6.6322222 H 7.6216527 l -0.2485979,0.3031684 -0.073311,0.090399 c -0.024399,0.030121 -0.047997,0.060278 -0.071658,0.090399 l -0.055121,0.069453 C 7.1551788,7.162441 7.1371708,7.1393906 7.1189458,7.1161892 L 7.0483892,7.0257899 C 7.0247288,6.9956684 7.0005802,6.9655121 6.97618,6.9353906 L 6.7319918,6.6322222 Z M 3.9092185,6.7920746 c 0.030867,0.082056 0.057175,0.1505497 0.078824,0.2061545 0.028836,0.071539 0.0548,0.1354213 0.077721,0.1912719 L 4.1892357,7.4904646 H 3.6247914 L 3.7521221,7.189501 c 0.023661,-0.055851 0.049624,-0.1197333 0.077721,-0.1912719 0.022219,-0.055605 0.048377,-0.124098 0.079375,-0.2061545 z" /></g></svg>
